# xmcd
#
# Track frame offsets: 
#        150
#        15951
#        36758
#        55119
#        71690
#        93933
#        117523
#        138276
#        150379
#        167281
#        191869
#        205679
#        220389
#        240011
#
# Disc length: 3355 seconds
#
# Revision: 0
# Processed by: cddbd v1.5.2PL0 Copyright (c) Steve Scherf et al.
# Submitted via: ExactAudioCopyFreeDBPlugin 1.0
#
DISCID=ad0d190e
DTITLE=Boz Scaggs - Moments
DYEAR=1971
DGENRE=Blues
TTITLE0=We Were Always Sweethearts
TTITLE1=Downright Women
TTITLE2=Painted Bells
TTITLE3=Alone, Alone
TTITLE4=Near You
TTITLE5=I Will Forever Sing (The Blues)
TTITLE6=Moments
TTITLE7=Hollywood Blues
TTITLE8=We Been Away
TTITLE9=Can I Make It Last (Instrumental)
TTITLE10=We Were Always Sweethearts (Mono 45 Version)
TTITLE11=Near You (Mono 45 Version)
TTITLE12=I Feel So Good (Recorded Live)
TTITLE13=Hollywoode Blues (Recorded Live)
EXTD=
EXTT0=
EXTT1=
EXTT2=
EXTT3=
EXTT4=
EXTT5=
EXTT6=
EXTT7=
EXTT8=
EXTT9=
EXTT10=
EXTT11=
EXTT12=
EXTT13=
PLAYORDER=
